<svg width="1883" height="660" viewBox="0 0 1883 660" fill="none" xmlns="http://www.w3.org/2000/svg">
<path d="M1882.1 644.848L1757.94 645.069L1532.87 151.521L1317.2 645.069H1192.24L1475.71 15.667L1592.22 15.5934L1882.1 644.848ZM500.756 198.964C499.137 88.4855 407.931 11.3273 278.917 11.3273H0V644.039H101.578V103.711H273.106C330.552 103.711 392.337 132.177 393.293 200.288C394.176 260.896 346.513 298.85 265.751 302.086L264.206 302.233L202.715 302.748L407.563 645.069L527.529 644.848C527.529 644.848 428.967 479.278 367.182 375.42C458.241 343.129 501.785 271.708 500.756 198.964ZM902.14 271.12C795.486 242.434 753.781 218.235 753.781 169.321C753.781 95.1789 849.255 87.9706 883.457 87.9706C937.225 87.9706 1005.63 105.109 1046.08 124.968L1088.97 44.7944C1034.32 17.9472 950.612 0 880.589 0C731.642 0 638.375 64.5069 638.375 174.764C638.375 300.689 769.89 336.289 872.203 363.725C978.709 392.337 1015.85 424.627 1015.85 473.614C1015.85 555.186 928.84 567.91 874.925 567.91C800.93 567.91 739.88 548.272 680.227 513.26L629.328 595.273C704.647 639.405 782.688 660 874.925 660C1029.02 660 1131.33 584.166 1131.33 466.7C1131.33 335.553 1006.81 299.218 902.14 271.12ZM1761.54 40.234C1761.54 43.9117 1760.88 47.2952 1759.56 50.3845C1758.23 53.4737 1756.47 56.0481 1754.26 58.1812C1752.06 60.3143 1749.48 62.006 1746.54 63.1829C1743.6 64.3597 1740.51 64.9482 1737.35 64.9482C1733.74 64.9482 1730.5 64.3597 1727.49 63.0358C1724.47 61.7118 1721.97 60.0201 1719.84 57.8134C1717.71 55.6068 1716.01 52.9589 1714.84 49.9432C1713.59 46.9275 1713 43.6175 1713 40.0869C1713 36.4092 1713.66 33.0257 1714.98 29.9365C1716.31 26.8472 1718.07 24.2728 1720.28 22.1397C1722.49 20.0067 1725.14 18.3149 1728.08 17.1381C1731.02 15.9612 1734.18 15.3728 1737.42 15.3728C1740.66 15.3728 1743.74 15.9612 1746.61 17.1381C1749.56 18.3149 1752.13 20.0067 1754.34 22.1397C1756.54 24.2728 1758.31 26.9208 1759.63 29.9365C1760.96 32.9522 1761.54 36.5563 1761.54 40.234ZM1756.25 40.234C1756.25 37.2183 1755.73 34.4968 1754.78 31.9224C1753.87 29.5176 1752.5 27.3172 1750.73 25.4497C1749.04 23.6108 1746.98 22.2133 1744.7 21.2571C1742.42 20.3009 1739.92 19.786 1737.27 19.786C1734.55 19.786 1732.05 20.3009 1729.77 21.2571C1727.42 22.2133 1725.43 23.6844 1723.74 25.4497C1722.05 27.2885 1720.65 29.4216 1719.69 31.9224C1718.74 34.4233 1718.22 37.2183 1718.22 40.234C1718.22 43.0291 1718.66 45.677 1719.55 48.1779C1720.43 50.6787 1721.68 52.8118 1723.37 54.6506C1724.99 56.4895 1727.05 57.9605 1729.33 59.0639C1731.68 60.1672 1734.33 60.6821 1737.27 60.6821C1739.92 60.6821 1742.42 60.1672 1744.7 59.211C1746.98 58.2548 1748.97 56.7837 1750.73 55.0184C1752.42 53.1795 1753.82 51.0465 1754.78 48.5456C1755.73 46.0448 1756.25 43.3233 1756.25 40.234ZM1732.42 54.43H1727.93V26.9943H1738.3C1741.61 26.9943 1744.11 27.5827 1745.8 28.8332C1747.5 30.0836 1748.3 32.0695 1748.3 34.8646C1748.3 37.3654 1747.64 39.1307 1746.25 40.3076C1744.85 41.4845 1743.16 42.1464 1741.17 42.3671L1748.82 54.43H1743.74L1736.68 42.7349H1732.42V54.43ZM1737.42 38.8365C1738.23 38.8365 1739.04 38.8365 1739.85 38.763C1740.66 38.6894 1741.32 38.5423 1741.91 38.1745C1742.49 37.8803 1742.94 37.439 1743.3 36.8505C1743.67 36.2621 1743.82 35.5266 1743.82 34.4968C1743.82 33.6877 1743.6 33.0257 1743.23 32.5109C1742.86 31.996 1742.35 31.6282 1741.83 31.4076C1741.32 31.1869 1740.58 30.9662 1739.92 30.8927C1739.26 30.8191 1738.52 30.8191 1737.86 30.8191H1732.42V38.8365H1737.42Z" fill="black"/>
</svg>
